name rise30.9205peak61.366fall85.3838.mot
datacolumns 19
datarows 39
range 18.753260 18.816601
endheader
time	ground_force1_vx	ground_force1_vy	ground_force1_vz	ground_force1_px	ground_force1_py	ground_force1_pz	ground_force2_vx	ground_force2_vy	ground_force2_vz	ground_force2_px	ground_force2_py	ground_force2_pz	ground_torque1_x	ground_torque1_y	ground_torque1_z	ground_torque2_x	ground_torque2_y	ground_torque2_z	
18.753260	20.580240	709.607847	40.573066	0.264910	0.000000	0.113160	0.000000	0.000000	0.000000	0.000000	0.000000	0.000000	0.000000	15.832785	0.000000	0.000000	0.000000	0.000000	
18.754930	20.163314	707.908101	40.409983	0.263769	0.000000	0.113146	0.000000	0.000000	0.000000	0.000000	0.000000	0.000000	0.000000	15.743437	0.000000	0.000000	0.000000	0.000000	
18.756598	19.756387	706.256236	40.257198	0.262656	0.000000	0.113130	0.000000	0.000000	0.000000	0.000000	0.000000	0.000000	0.000000	15.660221	0.000000	0.000000	0.000000	0.000000	
18.758265	19.359333	704.653550	40.114546	0.261569	0.000000	0.113115	0.000000	0.000000	0.000000	0.000000	0.000000	0.000000	0.000000	15.583124	0.000000	0.000000	0.000000	0.000000	
18.759932	18.971989	703.101222	39.981832	0.260511	0.000000	0.113098	0.000000	0.000000	0.000000	0.000000	0.000000	0.000000	0.000000	15.512115	0.000000	0.000000	0.000000	0.000000	
18.761593	18.594155	701.600318	39.858834	0.259481	0.000000	0.113081	0.000000	0.000000	0.000000	0.000000	0.000000	0.000000	0.000000	15.447154	0.000000	0.000000	0.000000	0.000000	
18.763266	18.225592	700.151792	39.745302	0.258480	0.000000	0.113064	0.000000	0.000000	0.000000	0.000000	0.000000	0.000000	0.000000	15.388186	0.000000	0.000000	0.000000	0.000000	
18.764935	17.866025	698.756488	39.640966	0.257507	0.000000	0.113045	0.000000	0.000000	0.000000	0.000000	0.000000	0.000000	0.000000	15.335144	0.000000	0.000000	0.000000	0.000000	
18.766609	17.515145	697.415148	39.545535	0.256564	0.000000	0.113026	0.000000	0.000000	0.000000	0.000000	0.000000	0.000000	0.000000	15.287951	0.000000	0.000000	0.000000	0.000000	
18.768266	17.172606	696.128409	39.458701	0.255649	0.000000	0.113006	0.000000	0.000000	0.000000	0.000000	0.000000	0.000000	0.000000	15.246522	0.000000	0.000000	0.000000	0.000000	
18.769930	16.838029	694.896812	39.380141	0.254762	0.000000	0.112986	0.000000	0.000000	0.000000	0.000000	0.000000	0.000000	0.000000	15.210763	0.000000	0.000000	0.000000	0.000000	
18.771604	16.511001	693.720803	39.309517	0.253904	0.000000	0.112964	0.000000	0.000000	0.000000	0.000000	0.000000	0.000000	0.000000	15.180571	0.000000	0.000000	0.000000	0.000000	
18.773261	16.191081	692.600740	39.246485	0.253072	0.000000	0.112942	0.000000	0.000000	0.000000	0.000000	0.000000	0.000000	0.000000	15.155838	0.000000	0.000000	0.000000	0.000000	
18.774926	15.877794	691.536896	39.190691	0.252267	0.000000	0.112919	0.000000	0.000000	0.000000	0.000000	0.000000	0.000000	0.000000	15.136452	0.000000	0.000000	0.000000	0.000000	
18.776596	15.570638	690.529462	39.141776	0.251488	0.000000	0.112895	0.000000	0.000000	0.000000	0.000000	0.000000	0.000000	0.000000	15.122293	0.000000	0.000000	0.000000	0.000000	
18.778261	15.269086	689.578558	39.099378	0.250732	0.000000	0.112871	0.000000	0.000000	0.000000	0.000000	0.000000	0.000000	0.000000	15.113241	0.000000	0.000000	0.000000	0.000000	
18.779927	14.972585	688.684230	39.063137	0.250000	0.000000	0.112845	0.000000	0.000000	0.000000	0.000000	0.000000	0.000000	0.000000	15.109171	0.000000	0.000000	0.000000	0.000000	
18.781611	14.680559	687.846462	39.032690	0.249290	0.000000	0.112819	0.000000	0.000000	0.000000	0.000000	0.000000	0.000000	0.000000	15.109957	0.000000	0.000000	0.000000	0.000000	
18.783259	14.392411	687.065178	39.007679	0.248600	0.000000	0.112792	0.000000	0.000000	0.000000	0.000000	0.000000	0.000000	0.000000	15.115472	0.000000	0.000000	0.000000	0.000000	
18.784925	14.107527	686.340248	38.987753	0.247928	0.000000	0.112765	0.000000	0.000000	0.000000	0.000000	0.000000	0.000000	0.000000	15.125588	0.000000	0.000000	0.000000	0.000000	
18.786596	13.825274	685.671493	38.972564	0.247274	0.000000	0.112737	0.000000	0.000000	0.000000	0.000000	0.000000	0.000000	0.000000	15.140179	0.000000	0.000000	0.000000	0.000000	
18.788268	13.545008	685.058692	38.961776	0.246635	0.000000	0.112708	0.000000	0.000000	0.000000	0.000000	0.000000	0.000000	0.000000	15.159118	0.000000	0.000000	0.000000	0.000000	
18.789934	13.266072	684.501586	38.955059	0.246009	0.000000	0.112679	0.000000	0.000000	0.000000	0.000000	0.000000	0.000000	0.000000	15.182282	0.000000	0.000000	0.000000	0.000000	
18.791592	12.987799	683.999883	38.952096	0.245394	0.000000	0.112649	0.000000	0.000000	0.000000	0.000000	0.000000	0.000000	0.000000	15.209548	0.000000	0.000000	0.000000	0.000000	
18.793261	12.709518	683.553265	38.952582	0.244789	0.000000	0.112619	0.000000	0.000000	0.000000	0.000000	0.000000	0.000000	0.000000	15.240797	0.000000	0.000000	0.000000	0.000000	
18.794933	12.430552	683.161392	38.956224	0.244192	0.000000	0.112588	0.000000	0.000000	0.000000	0.000000	0.000000	0.000000	0.000000	15.275912	0.000000	0.000000	0.000000	0.000000	
18.796597	12.150223	682.823909	38.962744	0.243599	0.000000	0.112557	0.000000	0.000000	0.000000	0.000000	0.000000	0.000000	0.000000	15.314783	0.000000	0.000000	0.000000	0.000000	
18.798265	11.867856	682.540449	38.971877	0.243010	0.000000	0.112526	0.000000	0.000000	0.000000	0.000000	0.000000	0.000000	0.000000	15.357299	0.000000	0.000000	0.000000	0.000000	
18.799926	11.582777	682.310636	38.983375	0.242423	0.000000	0.112495	0.000000	0.000000	0.000000	0.000000	0.000000	0.000000	0.000000	15.403358	0.000000	0.000000	0.000000	0.000000	
18.801596	11.294320	682.134096	38.997003	0.241834	0.000000	0.112463	0.000000	0.000000	0.000000	0.000000	0.000000	0.000000	0.000000	15.452859	0.000000	0.000000	0.000000	0.000000	
18.803265	11.001828	682.010455	39.012546	0.241243	0.000000	0.112432	0.000000	0.000000	0.000000	0.000000	0.000000	0.000000	0.000000	15.505707	0.000000	0.000000	0.000000	0.000000	
18.804931	10.704656	681.939348	39.029801	0.240647	0.000000	0.112400	0.000000	0.000000	0.000000	0.000000	0.000000	0.000000	0.000000	15.561813	0.000000	0.000000	0.000000	0.000000	
18.806599	10.402171	681.920418	39.048585	0.240043	0.000000	0.112369	0.000000	0.000000	0.000000	0.000000	0.000000	0.000000	0.000000	15.621092	0.000000	0.000000	0.000000	0.000000	
18.808260	10.093758	681.953326	39.068731	0.239432	0.000000	0.112337	0.000000	0.000000	0.000000	0.000000	0.000000	0.000000	0.000000	15.683465	0.000000	0.000000	0.000000	0.000000	
18.809930	9.778821	682.037748	39.090085	0.238809	0.000000	0.112306	0.000000	0.000000	0.000000	0.000000	0.000000	0.000000	0.000000	15.748857	0.000000	0.000000	0.000000	0.000000	
18.811595	9.456784	682.173381	39.112515	0.238175	0.000000	0.112275	0.000000	0.000000	0.000000	0.000000	0.000000	0.000000	0.000000	15.817199	0.000000	0.000000	0.000000	0.000000	
18.813260	9.127092	682.359948	39.135900	0.237527	0.000000	0.112245	0.000000	0.000000	0.000000	0.000000	0.000000	0.000000	0.000000	15.888427	0.000000	0.000000	0.000000	0.000000	
18.814932	8.789220	682.597196	39.160139	0.236863	0.000000	0.112215	0.000000	0.000000	0.000000	0.000000	0.000000	0.000000	0.000000	15.962483	0.000000	0.000000	0.000000	0.000000	
18.816601	8.442666	682.884900	39.185146	0.236182	0.000000	0.112185	0.000000	0.000000	0.000000	0.000000	0.000000	0.000000	0.000000	16.039313	0.000000	0.000000	0.000000	0.000000	
